<?xml version="1.0" encoding="UTF-8"?> <svg xmlns="http://www.w3.org/2000/svg" xmlns:xlink="http://www.w3.org/1999/xlink" version="1.1" id="Layer_1" x="0px" y="0px" viewBox="0 0 150 150" style="enable-background:new 0 0 150 150;" xml:space="preserve"> <style type="text/css"> .st0{fill:#50586D;} .st1{fill:#AD1A19;} </style> <g> <path id="XMLID_48_" class="st0" d="M80.58,4.07L80.58,4.07c-0.29-0.29-0.6-0.55-0.93-0.79c-0.02-0.02-0.05-0.03-0.07-0.05 c-2.05-1.47-4.71-1.91-7.34-1.08c-1.12,0.39-2.17,1.02-3.06,1.91c0,0,0,0-0.01,0l0,0l0,0l-7.21,7.25L44.84,28.55l0,0l5.7,5.74 l21.69-21.82c0.47-0.47,1.04-0.78,1.65-0.94c0,0,0.01,0,0.01,0c0.68-0.17,1.35-0.16,1.97,0c0.01,0,0.03,0.01,0.04,0.01 c0.21,0.06,0.41,0.14,0.61,0.23c0.11,0.05,0.22,0.11,0.32,0.17c0.07,0.04,0.13,0.09,0.2,0.13c0.17,0.12,0.34,0.25,0.49,0.41l0,0 l0,0L88.5,23.52l10.8,10.87l5.7-5.74L80.61,4.11L80.58,4.07z"></path> <polygon id="XMLID_47_" class="st1" points="96.19,73.19 96.19,73.19 95.58,73.81 "></polygon> <polygon id="XMLID_46_" class="st1" points="53.74,73.01 54.35,73.63 53.74,73.01 "></polygon> <polygon id="XMLID_45_" class="st1" points="43.21,41.66 37.51,35.93 31.81,41.66 37.51,47.4 "></polygon> <polygon id="XMLID_44_" class="st1" points="49.73,35.11 44.03,29.37 38.33,35.11 44.03,40.84 "></polygon> <polygon id="XMLID_43_" class="st1" points="112.33,47.49 118.04,41.76 112.33,36.02 106.63,41.76 "></polygon> <polygon id="XMLID_42_" class="st1" points="111.52,35.2 105.82,29.46 100.11,35.2 105.82,40.93 "></polygon> <polygon id="XMLID_41_" class="st1" points="96.19,73.19 96.19,73.19 95.58,73.81 "></polygon> <path id="XMLID_36_" class="st1" d="M72.42,59.29c-0.01-0.02-0.01-0.04-0.01-0.06c-0.01-0.03-0.03-0.06-0.04-0.09 c-0.08-0.21-0.16-0.42-0.25-0.63c-0.03-0.07-0.06-0.13-0.09-0.2c-0.09-0.19-0.19-0.37-0.29-0.55c-0.05-0.08-0.09-0.16-0.14-0.24 c-0.1-0.16-0.21-0.31-0.32-0.46c-0.07-0.09-0.13-0.18-0.2-0.27c-0.12-0.15-0.25-0.29-0.38-0.43c-0.06-0.07-0.12-0.15-0.19-0.21 l-0.47-0.47l-5.07-5.1h0l-0.62-0.62l-4.85-4.88l-0.23-0.23L48.24,55.93c-0.01,0.01-0.02,0.02-0.03,0.04l-0.17,0.17 c-3.15,3.17-3.15,8.31,0,11.49l5.52,5.55l-6.98,7.01l0,0l-0.23,0.23c-0.1,0.1-0.2,0.19-0.31,0.27c-0.03,0.02-0.05,0.05-0.08,0.07 c-0.1,0.07-0.2,0.14-0.3,0.2c-0.08,0.05-0.16,0.09-0.24,0.13c-0.22,0.11-0.44,0.2-0.67,0.27c-0.02,0.01-0.04,0.01-0.06,0.02l0,0 c0,0-0.01,0-0.02,0l0,0c-0.65,0.18-1.32,0.18-1.97,0c-0.01,0-0.03-0.01-0.04-0.01c-0.21-0.06-0.41-0.14-0.61-0.23 c-0.11-0.05-0.22-0.11-0.32-0.17c-0.07-0.04-0.13-0.09-0.2-0.13c-0.17-0.12-0.34-0.25-0.49-0.41l0,0l0,0c0,0-0.01-0.01-0.01-0.01 L30.07,69.38l0,0l-1.05-1.05l-3.27-3.29l0,0l-0.23-0.23c-0.48-0.48-0.78-1.06-0.95-1.67c0,0,0-0.01,0-0.01 c-0.17-0.68-0.16-1.36,0-1.98c0-0.01,0.01-0.03,0.01-0.04c0.06-0.21,0.14-0.42,0.23-0.61c0.05-0.11,0.11-0.22,0.17-0.33 c0.04-0.07,0.09-0.13,0.13-0.2c0.12-0.17,0.25-0.34,0.4-0.5l0,0l0,0c0,0,0.01-0.01,0.01-0.01l11.16-11.21l-5.7-5.74L17.19,56.35 c-0.3,0.3-0.57,0.63-0.82,0.97c-0.02,0.02-0.03,0.05-0.05,0.07c-1.47,2.06-1.9,4.73-1.08,7.38c0.39,1.13,1.01,2.18,1.91,3.08 l0.47,0.47l6.74,6.79l13.4,13.48l0.19,0.19c0.3,0.3,0.63,0.58,0.96,0.83c0.02,0.02,0.05,0.03,0.07,0.05 c2.05,1.47,4.71,1.91,7.34,1.08c1.12-0.39,2.17-1.02,3.06-1.92l0.47-0.47l9.4-9.45l0.02-0.02l0.15-0.15l11.06-11.13 c0.01-0.01,0.02-0.02,0.03-0.04c0.26-0.26,0.49-0.54,0.7-0.83c0.02-0.02,0.04-0.04,0.05-0.06c0.02-0.02,0.03-0.05,0.05-0.07 c0.02-0.02,0.03-0.05,0.04-0.07C72.87,64.41,73.22,61.7,72.42,59.29z M62.12,64.36l-2.89,2.91l-2.9-2.91 c-1.41-1.42-1.41-3.71,0-5.13l2.9-2.91l2.89,2.91C63.53,60.64,63.53,62.94,62.12,64.36z"></path> <path id="XMLID_33_" class="st1" d="M133.41,57.39c-0.02-0.02-0.03-0.05-0.05-0.07c-0.25-0.34-0.52-0.67-0.82-0.97l-13.59-13.67 l-5.7,5.74l10.96,11.03c0,0,0.01,0.01,0.01,0.01l0,0l0,0c0.15,0.15,0.28,0.32,0.4,0.5c0.05,0.07,0.09,0.13,0.13,0.2 c0.06,0.11,0.12,0.22,0.17,0.33c0.09,0.2,0.17,0.4,0.23,0.61c0,0.01,0.01,0.03,0.01,0.04c0.16,0.62,0.17,1.3,0,1.98 c0,0,0,0.01,0,0.01c-0.17,0.61-0.47,1.19-0.95,1.67l-0.23,0.23l0,0l-3.27,3.29l-1.05,1.05l0,0L108.71,80.4c0,0-0.01,0.01-0.01,0.01 l0,0l0,0c-0.15,0.15-0.32,0.28-0.49,0.41c-0.07,0.05-0.13,0.09-0.2,0.13c-0.11,0.06-0.21,0.12-0.32,0.17 c-0.2,0.1-0.4,0.17-0.61,0.23c-0.01,0-0.03,0.01-0.04,0.01c-0.65,0.18-1.32,0.18-1.97,0l0,0c-0.01,0-0.01,0-0.02,0l0,0 c-0.02-0.01-0.04-0.01-0.06-0.02c-0.23-0.07-0.45-0.16-0.67-0.27c-0.08-0.04-0.16-0.08-0.24-0.13c-0.1-0.06-0.2-0.13-0.3-0.2 c-0.03-0.02-0.05-0.04-0.08-0.07c-0.11-0.08-0.21-0.17-0.31-0.27l-0.23-0.23l0,0l-6.92-6.96l5.52-5.55c3.15-3.17,3.15-8.31,0-11.49 l-0.04-0.04c-0.01-0.01-0.01-0.02-0.02-0.03L90.67,45.03l0,0l-0.13-0.13L79.32,56.18c-3.15,3.17-3.15,8.31,0,11.49l0.11,0.11 c0,0,0.01,0.01,0.01,0.01l5.36,5.39l-3.67,3.7l-3.27,3.29l0,0l-0.23,0.23c-0.48,0.48-1.05,0.79-1.66,0.95c0,0-0.01,0-0.01,0 c-0.68,0.17-1.35,0.16-1.97,0c-0.01,0-0.03-0.01-0.04-0.01c-0.21-0.06-0.41-0.14-0.61-0.23c-0.11-0.05-0.22-0.11-0.32-0.17 c-0.07-0.04-0.13-0.09-0.2-0.13c-0.17-0.12-0.34-0.25-0.49-0.41l0,0l0,0c0,0-0.01-0.01-0.01-0.01l-6.43-6.47l-5.7,5.74l9.06,9.12 c0.3,0.3,0.63,0.58,0.96,0.83c0.02,0.02,0.05,0.03,0.07,0.05c2.05,1.47,4.71,1.91,7.34,1.08c1.12-0.39,2.17-1.02,3.06-1.92 l0.47-0.47l9.37-9.44l9.38,9.43l0.47,0.47c0.89,0.9,1.95,1.53,3.07,1.92c2.63,0.83,5.29,0.39,7.34-1.08 c0.02-0.02,0.05-0.03,0.07-0.05c0.34-0.25,0.66-0.52,0.96-0.83l0.19-0.19l13.4-13.48l6.75-6.79l0.47-0.47 c0.89-0.9,1.52-1.96,1.91-3.08C135.31,62.12,134.88,59.45,133.41,57.39z M93.4,64.41l-2.89,2.91l-2.9-2.91 c-1.41-1.42-1.41-3.71,0-5.13l2.9-2.91l2.89,2.91C94.8,60.69,94.8,62.99,93.4,64.41z"></path> <g id="XMLID_57_"> <g id="XMLID_107_"> <path id="XMLID_117_" class="st0" d="M67.35,112.56h-6.63v13.64h1.97v-11.68h4.09c1.08,0,1.63,0.49,1.63,1.46v1.56 c0,0.92-0.48,1.38-1.44,1.38h-2.89c-0.81,0.01-1.22,0.4-1.22,1.17c0,0.4,0.08,0.68,0.24,0.86l4.83,5.25h2.45l-5.12-5.56h2.28 c0.85,0,1.54-0.26,2.06-0.77c0.52-0.51,0.78-1.2,0.78-2.06v-2.35C70.38,113.53,69.37,112.56,67.35,112.56z"></path> <path id="XMLID_116_" class="st0" d="M73.07,113.37c-0.53,0.54-0.79,1.28-0.79,2.22v7.71c0,0.95,0.3,1.68,0.89,2.19 c0.54,0.48,1.3,0.72,2.28,0.72h5.63v-1.96h-5.1c-1.15,0-1.73-0.52-1.73-1.56v-2.3h6.83v-1.96h-6.83v-2.34 c0-1.03,0.57-1.54,1.71-1.54h5.12v-1.96h-5.81C74.33,112.56,73.6,112.83,73.07,113.37z"></path> <path id="XMLID_115_" class="st0" d="M83.98,113.16c-0.66,0.56-0.99,1.32-0.99,2.29v2.12c0,0.86,0.31,1.54,0.92,2.04 c0.56,0.46,1.27,0.69,2.14,0.69h2.1c1.1,0,1.65,0.47,1.65,1.41c0,1.01-0.05,1.62-0.14,1.84c-0.2,0.47-0.73,0.7-1.57,0.7h-5.09 v1.96h5.67c0.95,0,1.7-0.25,2.25-0.75c0.55-0.5,0.83-1.22,0.83-2.16v-2.17c0-0.89-0.27-1.58-0.8-2.07 c-0.54-0.49-1.25-0.74-2.14-0.74h-2.09c-0.58,0-1-0.1-1.26-0.31c-0.31-0.26-0.47-0.63-0.47-1.11c0-0.92,0.06-1.5,0.18-1.75 c0.2-0.42,0.72-0.64,1.54-0.64h5.05v-1.96h-5.74C85.11,112.56,84.44,112.76,83.98,113.16z"></path> <path id="XMLID_114_" class="st0" d="M94.39,113.37c-0.53,0.54-0.79,1.28-0.79,2.22v7.71c0,0.95,0.3,1.68,0.89,2.19 c0.54,0.48,1.3,0.72,2.28,0.72h5.63v-1.96h-5.1c-1.15,0-1.73-0.52-1.73-1.56v-2.3h6.83v-1.96h-6.83v-2.34 c0-1.03,0.57-1.54,1.71-1.54h5.12v-1.96h-5.81C95.65,112.56,94.92,112.83,94.39,113.37z"></path> <path id="XMLID_111_" class="st0" d="M109.89,112.42c-0.75,0-1.27,0.42-1.57,1.25l-4.41,12.54h2.11l1.18-3.4h5.37l1.18,3.4h2.11 l-4.41-12.54C111.15,112.84,110.63,112.42,109.89,112.42z M107.83,120.93l1.95-6.12l2.15,6.12H107.83z"></path> <path id="XMLID_110_" class="st0" d="M123.53,112.56h-6.63v13.64h1.97v-11.68h4.09c1.08,0,1.63,0.49,1.63,1.46v1.56 c0,0.92-0.48,1.38-1.44,1.38h-2.89c-0.81,0.01-1.22,0.4-1.22,1.17c0,0.4,0.08,0.68,0.24,0.86l4.83,5.25h2.45l-5.12-5.56h2.28 c0.85,0,1.54-0.26,2.06-0.77c0.52-0.51,0.78-1.2,0.78-2.06v-2.35C126.56,113.53,125.55,112.56,123.53,112.56z"></path> <path id="XMLID_109_" class="st0" d="M129.42,113.2c-0.56,0.49-0.83,1.29-0.83,2.39v7.55c0,0.97,0.26,1.72,0.78,2.26 c0.52,0.54,1.26,0.81,2.23,0.81h5.81v-1.96h-5.08c-0.65,0-1.11-0.13-1.37-0.38c-0.26-0.25-0.4-0.71-0.4-1.37v-6.47 c0-0.51,0.15-0.9,0.45-1.17c0.24-0.22,0.65-0.33,1.22-0.33h5.2v-1.96h-5.67C130.68,112.56,129.9,112.78,129.42,113.2z"></path> <path id="XMLID_108_" class="st0" d="M147.05,112.56v5.85h-5.94v-5.85h-1.97v13.64h1.97v-5.83h5.94v8.18v2.06v3.15h0.1h0.61 c0.84,0,1.27-0.42,1.27-1.24v-1.44v-18.54H147.05z"></path> </g> <g id="XMLID_17_"> <path id="XMLID_106_" class="st0" d="M5.77,138.93c0.53,0,0.95-0.39,0.95-0.89c0-0.52-0.43-0.91-0.95-0.91s-0.95,0.39-0.95,0.91 C4.82,138.54,5.25,138.93,5.77,138.93z"></path> <path id="XMLID_105_" class="st0" d="M6.98,138.04c0,0.5,0.41,0.89,0.92,0.89c0.51,0,0.97-0.39,0.97-0.89 c0-0.52-0.46-0.91-0.97-0.91C7.39,137.14,6.98,137.53,6.98,138.04z"></path> <path id="XMLID_104_" class="st0" d="M10.88,139.95h-0.61v2.58c0,0.72-0.28,1.13-1.05,1.19h-5.3c-1.58,0-1.61-1.53-1.61-2.14 c0-0.7,0.25-1.77,0.94-2.33H2.65c-1.3,0-1.76,1.11-1.76,2.58c0,0.95,0.16,3.45,3.23,3.45h5.25c1.89-0.05,2.81-1.19,2.81-2.66 v-1.44C12.18,140.37,11.73,139.95,10.88,139.95z"></path> <path id="XMLID_103_" class="st0" d="M6.84,137.1c0.48,0,0.87-0.38,0.87-0.81c0-0.45-0.4-0.81-0.87-0.81s-0.86,0.36-0.86,0.81 C5.99,136.73,6.37,137.1,6.84,137.1z"></path> <path id="XMLID_102_" class="st0" d="M66.15,139.95h-0.61v2.58c0,0.72-0.3,1.11-1.05,1.19h-0.87h-0.49h-1.4h-0.25h-1.65h-0.25 h-1.65h-0.25h-1.65h-0.25h-1.65H53.9h-1.65h-0.25h-1.65h-0.25h-1.65h-0.25h-1.65h-0.25h-1.65h-0.25h-1.25 c-0.3-2.3-1.51-5.07-4.36-5.07c-2.39,0-2.67,0.8-2.67,1.85v0.59c0.72-0.64,1.37-0.87,2.3-0.87c1.99,0,2.77,2.5,3.03,3.5h-5.84 h-0.33h-1.56h-0.25h-1.65h-0.25h-1.65h-0.25h-1.65h-0.25h-1.65h-0.25h-1.65h-0.25H22.4h-0.25h-1.65h-0.25h-1.65h-0.25h-1.73 h-0.16h-0.03c-0.66-0.06-0.97-0.36-1.04-0.89v-6.08c0-0.55-0.56-0.91-1.05-0.91h-0.86v6.79c0,1.47,0.92,2.6,2.81,2.66h0.16h0.16 h1.73h0.25h1.65h0.25h1.65h0.25h1.65h0.25h1.65h0.25h1.65h0.25h1.65h0.25h1.65h0.25h1.65h0.25h1.56h0.33h8.79h0.25h1.65h0.25 h1.65h0.25h1.65h0.25h1.65h0.25h1.65h0.25h1.65h0.25h1.65h0.25h1.65h0.25h1.65h0.25h1.4h0.49h1.02c1.88-0.06,2.78-1.2,2.78-2.66 v-1.44C67.41,140.37,66.99,139.95,66.15,139.95z"></path> <path id="XMLID_101_" class="st0" d="M65.7,146.14c-0.53,0-0.92,0.41-0.92,0.89c0,0.52,0.41,0.91,0.92,0.91 c0.49,0,0.97-0.39,0.95-0.91C66.66,146.53,66.21,146.14,65.7,146.14z"></path> <path id="XMLID_100_" class="st0" d="M75.86,135.2h1.81c0.23,0,0.36-0.17,0.36-0.33v-0.28h-1.3c-0.13-0.08-0.15-0.25-0.15-0.47 c0-0.28,0.1-0.5,0.35-0.5c0.16,0,0.54,0.11,0.72,0.72c0.07-0.2,0.21-0.39,0.21-0.63c-0.1-0.45-0.51-0.63-0.89-0.63 c-0.67,0-1.05,0.49-1.05,1.08c0,0.16,0,0.3,0.07,0.42h-0.49v0.28C75.49,135.03,75.63,135.2,75.86,135.2z"></path> <path id="XMLID_99_" class="st0" d="M100.55,135.84h-0.61v6.71c0,0.7-0.28,1.11-1.05,1.17h-0.05c-1.32,0-1.78-0.41-1.91-1.42 v-5.25c0-0.81-0.43-1.23-1.28-1.23h-0.61v6.75c0,0.7-0.28,1.09-1.04,1.16H77.67v-7c0-0.53-0.58-0.91-1.05-0.91h-0.86v7.91h-5.88 v0.45c0,0.72,0.44,1.11,1.42,1.11h22.84c0.91-0.03,1.58-0.28,2.06-0.72c0.55,0.46,1.31,0.69,2.25,0.71v0.01h0.13h0.44h0.02 c1.89-0.06,2.81-1.19,2.81-2.66v-5.57C101.85,136.24,101.41,135.84,100.55,135.84z"></path> <path id="XMLID_30_" class="st0" d="M113.78,138.68c-2.16,0-3.31,1.53-3.31,3.44c0,2.75,2.6,3.11,4.58,3.16 c-0.38,0.8-1.28,1.36-2.8,1.36c-1.7,0-2.93-1.14-2.93-2.75c0-0.88,0.25-1.83,0.72-2.41h-0.53c-0.79,0-1.68,0.67-1.68,2.2 c0,2.86,2.06,4.58,4.66,4.58c4.79,0,4.51-4.52,4.53-5.86C116.95,140.39,115.99,138.68,113.78,138.68z M115.38,143.72 c-1.09-0.03-3.28,0.17-3.28-1.81c0-1.11,0.51-1.91,1.53-1.91c1.58,0,1.76,1.3,1.76,2.61 C115.4,142.98,115.38,143.37,115.38,143.72z"></path> <path id="XMLID_27_" class="st0" d="M112.7,137.46c0.53,0,0.95-0.39,0.95-0.89c0-0.49-0.43-0.89-0.95-0.89 c-0.51,0-0.94,0.41-0.94,0.89C111.76,137.07,112.19,137.46,112.7,137.46z"></path> <path id="XMLID_25_" class="st0" d="M114.92,137.46c0.51,0,0.94-0.39,0.94-0.89c0-0.49-0.43-0.89-0.94-0.89 c-0.53,0-0.95,0.41-0.95,0.89C113.97,137.07,114.39,137.46,114.92,137.46z"></path> <path id="XMLID_24_" class="st0" d="M147.16,135.77c0,0.51,0.39,0.94,0.89,0.94c0.5,0,0.89-0.43,0.89-0.94 c0-0.53-0.39-0.96-0.89-0.96C147.55,134.81,147.16,135.24,147.16,135.77z"></path> <path id="XMLID_19_" class="st0" d="M147.85,139.95h-0.61v2.58c0,0.72-0.3,1.11-1.05,1.19h-0.87h-0.49h-1.31h-0.25h-1.65h-0.25 h-1.65h-0.25h-1.65h-0.25h-1.65h-0.25h-1.65h-0.25h-1.65h-0.25h-1.65h-0.25h-1.65h-0.25h-1.65h-0.25h-1.51l0.02-1.44 c-0.03-1.69-0.74-3.72-3.24-3.72c-2.16,0-3.31,1.53-3.31,3.44c0,2.78,2.67,3.25,4.67,3.28c-0.41,0.73-1.42,1.28-3.64,1.34v0.56 c0,0.42,0.44,0.75,1.15,0.75c2.86,0,3.97-1.5,4.25-2.66h1.61h0.25h1.65h0.25h1.65h0.25h1.65h0.25h1.65h0.25h1.65h0.25h1.65h0.25 h1.65h0.25h1.65h0.25h1.65h0.25h1.31h0.49h1.02c1.88-0.06,2.78-1.2,2.78-2.66v-1.44C149.12,140.37,148.69,139.95,147.85,139.95z M122.25,143.73c-1.1,0-2.44-0.19-2.44-1.95c0-1.11,0.51-1.91,1.53-1.91c2.04,0,1.66,2.27,1.74,3.85 C122.85,143.72,122.56,143.73,122.25,143.73z"></path> <path id="XMLID_18_" class="st0" d="M148.93,137.91c0-0.51-0.39-0.93-0.89-0.93c-0.5,0-0.89,0.41-0.89,0.93 c0,0.51,0.39,0.98,0.89,0.98C148.54,138.89,148.93,138.42,148.93,137.91z"></path> </g> <g id="XMLID_1_"> <path id="XMLID_3_" class="st0" d="M0.88,109.03v20.58h55.12v-20.58H0.88z M10.45,126.63H8.22v-12.4H4.43v-2.08h9.84v2.08h-3.82 V126.63z M24.78,126.63l-1.33-3.6l-3.15-8.49l-2.92,8.49l-1.33,3.6h-2.39l4.99-13.31c0.34-0.88,0.93-1.32,1.77-1.32 c0.84,0,1.43,0.44,1.77,1.32l4.99,13.31H24.78z M39.1,123.35c0,2.19-1.23,3.28-3.68,3.28h-3.38c-1.18,0-2.06-0.24-2.64-0.72 c-0.71-0.58-1.06-1.43-1.06-2.54v-7.93c0-1.09,0.36-1.94,1.08-2.56c0.57-0.49,1.44-0.74,2.62-0.74h3.4c2.44,0,3.66,1.1,3.66,3.3 V123.35z M48.72,126.63h-3.38c-1.18,0-2.06-0.24-2.64-0.72c-0.71-0.58-1.06-1.43-1.06-2.54v-7.93c0-1.09,0.36-1.94,1.08-2.56 c0.57-0.49,1.44-0.74,2.62-0.74h3.4c2.44,0,3.66,1.1,3.66,3.3v7.9c0,0.64-0.12,1.18-0.33,1.63l-1.88-1.8 c0.01-0.11,0.02-0.22,0.02-0.34v-6.8c0-0.65-0.15-1.12-0.46-1.4c-0.31-0.28-0.81-0.41-1.52-0.41h-2.35 c-0.72,0-1.24,0.13-1.55,0.4c-0.31,0.27-0.46,0.74-0.46,1.41v6.74c0,0.6,0.17,1.05,0.51,1.37c0.28,0.26,0.78,0.39,1.5,0.39h1.9 l2.11,1.97C49.54,126.58,49.16,126.63,48.72,126.63z M50.76,126.63l-3.59-3.36h2.37l3.51,3.36H50.76z"></path> <path id="XMLID_2_" class="st0" d="M34.93,114.23h-2.35c-0.72,0-1.24,0.13-1.55,0.4c-0.31,0.27-0.46,0.74-0.46,1.41v6.74 c0,0.6,0.17,1.05,0.51,1.37c0.28,0.26,0.78,0.39,1.5,0.39h2.35c0.69,0,1.2-0.13,1.51-0.38c0.32-0.25,0.47-0.69,0.47-1.32v-6.8 c0-0.65-0.15-1.12-0.46-1.4C36.15,114.37,35.64,114.23,34.93,114.23z"></path> </g> </g> </g> </svg> 